<svg width="1340" height="187" viewBox="0 0 1340 187" fill="none" xmlns="http://www.w3.org/2000/svg">
    <g clip-path="url(#clip0_776_9819)">
        <path
            d="M202.799 37.1989V0H40.3417L0 37.1989V149.298C0 169.909 17.9902 186.497 40.3417 186.497H161.912C184.264 186.497 202.254 169.909 202.254 149.298V112.099V74.9005H101.4V112.099H162.457V149.298H40.3417V37.1989H202.799Z"
            fill="#1E1E1E" />
        <path
            d="M284.028 0H243.686V149.801C243.686 170.411 261.676 187 284.028 187H446.485V149.801H284.028V0Z"
            fill="#1E1E1E" />
        <path
            d="M649.829 149.801H527.714V0H487.372V149.801C487.372 170.411 505.362 187 527.714 187H649.284C671.635 187 689.626 170.411 689.626 149.801V0H649.284V149.801H649.829Z"
            fill="#1E1E1E" />
        <path
            d="M933.857 37.1989V0H771.399L731.058 37.1989V74.3978V111.597V148.796C731.058 169.406 749.048 185.995 771.399 185.995H933.857V148.796H771.399V111.597H852.628V74.3978H771.399V37.1989H933.857Z"
            fill="#1E1E1E" />
        <path
            d="M1258.77 0H1215.16L1180.81 74.9005H1134.48L1100.13 0H1055.97L1098.49 93.5L1055.97 187H1100.13L1134.48 112.099H1180.81L1215.16 187H1258.77L1216.25 93.5L1258.77 0Z"
            fill="#1E1E1E" />
        <path d="M1278.94 4.52419V0H1306.2V4.52419H1294.75V37.7016H1289.85V4.52419H1278.94Z"
            fill="#1E1E1E" />
        <path
            d="M1312.74 37.1989V0H1317.65L1326.37 12.0645L1335.09 0H1340V37.1989H1335.64V7.54032L1329.1 16.086C1329.1 16.5887 1328.55 17.0914 1328.55 18.0968V20.6102H1323.65V18.5995C1323.65 17.5941 1323.65 17.0914 1323.1 16.5887L1316.56 8.04301V37.7016H1312.74V37.1989Z"
            fill="#1E1E1E" />
    </g>
    <defs>
        <clipPath id="clip0_776_9819">
            <rect width="1340" height="187" fill="white" />
        </clipPath>
    </defs>
</svg>